<svg width="649" height="417" viewBox="0 0 649 417" fill="none" xmlns="http://www.w3.org/2000/svg">
<g clip-path="url(#clip0_710_16011)">
<path d="M291.308 416.993C450.738 416.993 579.981 392.827 579.981 363.017C579.981 333.206 450.738 309.04 291.308 309.04C131.878 309.04 2.63477 333.206 2.63477 363.017C2.63477 392.827 131.878 416.993 291.308 416.993Z" fill="#1F376A"/>
<path d="M69.1242 210.293L71.929 210.848C72.2832 210.918 72.6272 210.688 72.6973 210.334L111.188 15.9142C111.258 15.56 111.028 15.216 110.674 15.1458L107.869 14.5904C107.515 14.5203 107.171 14.7506 107.101 15.1048L68.6099 209.524C68.5398 209.879 68.7701 210.223 69.1242 210.293Z" fill="#775637"/>
<path d="M0 63.2887C11.1399 63.8368 19.995 65.3756 25.9051 66.6437C45.1605 70.7647 53.2232 76.2463 72.4787 79.6805C81.5716 81.3051 89.1126 81.7476 93.8802 81.8797C98.0536 60.7857 102.234 39.6916 106.407 18.591C102.432 18.4523 96.2178 18.1221 88.6636 17.1909C71.6665 15.0908 61.5831 11.6301 39.5608 6.1948C33.2612 4.6362 23.9703 2.42377 12.5266 0C8.35328 21.094 4.17334 42.1881 0 63.2887Z" fill="white"/>
<path d="M51.7241 60.2376C62.3294 60.2376 70.9267 51.6391 70.9267 41.0324C70.9267 30.4256 62.3294 21.8271 51.7241 21.8271C41.1188 21.8271 32.5215 30.4256 32.5215 41.0324C32.5215 51.6391 41.1188 60.2376 51.7241 60.2376Z" fill="#BC172F"/>
<path d="M335.9 62.1784L333.002 62.7071C332.647 62.7719 332.412 63.1124 332.477 63.4677L369.452 266.155C369.517 266.51 369.858 266.746 370.213 266.681L373.11 266.152C373.465 266.087 373.701 265.747 373.636 265.392L336.66 62.7043C336.595 62.349 336.255 62.1136 335.9 62.1784Z" fill="#775637"/>
<path d="M338.675 73.7433L337.242 65.8908L349.075 63.7312L390.604 82.1043L435.758 73.8621L438.023 86.298L392.631 94.5863L359.522 126.459L348.659 128.44L347.266 120.832L378.566 90.6634L338.675 73.7433Z" fill="#00794D"/>
<path d="M338.682 73.7695L339.566 78.6435L371.276 92.0237L346.368 115.911L347.273 120.865L378.573 90.6963L338.682 73.7695Z" fill="#FAB41E"/>
<path d="M339.566 78.6436L346.368 115.911L371.276 92.0238L339.566 78.6436Z" fill="#1D1D1B"/>
<path d="M349.076 63.7313L356.386 62.3972L391.054 77.3625L434.933 69.3515L435.759 73.8622L390.605 82.1043L349.076 63.7313Z" fill="white"/>
<path d="M360.492 126.313L367.809 124.973L394.955 98.7273L438.828 90.7163L438.009 86.2056L392.855 94.4477L360.492 126.313Z" fill="white"/>
<path d="M356.385 62.3971C370.826 60.7526 386.285 58.3883 402.575 55.0532C412.738 52.9728 422.425 50.6745 431.63 48.2375C432.733 55.2777 433.836 62.3112 434.932 69.3514L391.053 77.3624L356.385 62.3971Z" fill="#E62F31"/>
<path d="M438.829 90.7163C440.017 97.2149 441.199 103.72 442.388 110.219C440.341 110.873 437.264 111.817 433.493 112.814C422.069 115.839 413.313 116.981 409.761 117.47C401.355 118.626 388.432 120.746 367.803 124.973C376.849 116.222 385.903 107.471 394.949 98.7207" fill="#243881"/>
<path d="M539.058 53.0733L535.354 52.7622C534.9 52.724 534.5 53.0614 534.462 53.5158L514.425 292.16C514.387 292.614 514.725 293.013 515.179 293.051L518.883 293.363C519.338 293.401 519.737 293.063 519.775 292.609L539.812 53.965C539.85 53.5107 539.513 53.1115 539.058 53.0733Z" fill="#775637"/>
<path d="M567.534 128.651C562.106 128.149 556.328 127.39 550.246 126.287C543.485 125.059 537.185 123.559 531.4 121.922C533.335 98.9255 535.263 75.9294 537.198 52.9333C543.26 54.4986 549.593 55.9779 556.17 57.3318C562.014 58.5338 567.706 59.5574 573.226 60.4358C571.331 83.1743 569.429 105.913 567.534 128.645V128.651Z" fill="#2D2E83"/>
<path d="M606.957 129.688C603.866 130.078 600.631 130.375 597.269 130.547C586.11 131.115 576.053 130.197 567.402 128.645C569.311 105.946 571.212 83.247 573.121 60.5481C580.893 61.7567 587.45 62.4567 592.489 62.8794C594.067 63.0115 598.537 63.3681 604.381 63.6191C607.551 63.7512 610.298 63.8238 612.49 63.8568C610.648 85.8028 608.806 107.742 606.963 129.688H606.957Z" fill="#F6F6F6"/>
<path d="M644.885 122.846C644.007 122.721 642.693 122.562 641.095 122.509C634.135 122.278 629.024 124.253 625.834 125.349C621.562 126.822 615.361 128.565 606.955 129.688C608.797 107.742 610.64 85.8027 612.482 63.8567C613.407 63.936 614.866 64.0416 616.669 64.0483C624.064 64.0615 628.535 62.3642 635.026 61.0829C637.938 60.5084 642.283 59.8149 647.764 59.5706C648.471 65.9767 648.933 72.9112 648.992 80.3212C649.124 96.5412 647.308 110.892 644.878 122.853L644.885 122.846Z" fill="#E30613"/>
<path d="M113.359 93.1087L110.546 93.4427C110.094 93.4965 109.77 93.9071 109.824 94.3598L133.365 292.693C133.419 293.146 133.83 293.47 134.282 293.416L137.095 293.082C137.548 293.028 137.871 292.618 137.818 292.165L114.276 93.8312C114.223 93.3784 113.812 93.055 113.359 93.1087Z" fill="#775637"/>
<path d="M149.467 150.128C144.944 150.624 140.09 150.974 134.926 151.093C129.188 151.225 123.786 151.046 118.774 150.683C116.503 131.544 114.231 112.411 111.953 93.2722C117.176 93.5364 122.604 93.6883 128.211 93.6883C133.196 93.6883 138.023 93.576 142.685 93.3713C144.944 112.293 147.202 131.214 149.46 150.135L149.467 150.128Z" fill="#176E31"/>
<path d="M181.889 144.363C179.426 145.201 176.831 145.981 174.104 146.687C165.071 149.025 156.691 149.957 149.348 150.135C147.103 131.247 144.864 112.352 142.619 93.4636C149.176 93.1532 154.664 92.6249 158.857 92.123C160.171 91.9645 163.889 91.5088 168.709 90.7361C171.324 90.3134 173.582 89.9105 175.385 89.5737C177.551 107.835 179.724 126.095 181.889 144.363Z" fill="#F6F6F6"/>
<path d="M211.776 132.409C211.036 132.449 209.934 132.541 208.62 132.766C202.888 133.743 199.038 136.213 196.608 137.646C193.359 139.568 188.578 142.031 181.889 144.363C179.723 126.102 177.551 107.841 175.385 89.5737C176.151 89.4879 177.366 89.3228 178.838 89.0256C184.894 87.7972 188.268 85.6574 193.359 83.5176C195.644 82.56 199.084 81.2655 203.528 80.1428C205.179 85.2677 206.718 90.8616 208.012 96.9111C210.838 110.159 211.756 122.205 211.776 132.396V132.409Z" fill="#E02917"/>
<path d="M456.115 320.974L458.829 321.727C459.179 321.826 459.542 321.615 459.635 321.271L514.244 123.546C514.344 123.196 514.132 122.833 513.789 122.74L511.075 121.987C510.725 121.888 510.362 122.1 510.269 122.443L455.659 320.168C455.56 320.518 455.772 320.882 456.115 320.974Z" fill="#775637"/>
<path d="M400.82 151.587L495.029 177.611L509.867 123.882L415.658 97.8584L400.82 151.587Z" fill="white"/>
<path d="M464.799 142.501L501.895 152.749L509.865 123.885L472.77 113.638L464.799 142.501Z" fill="#1E3868"/>
<path d="M414.519 101.986L471.633 117.763L472.772 113.638L415.658 97.8608L414.519 101.986Z" fill="#E30613"/>
<path d="M412.193 110.398L469.307 126.175L470.446 122.05L413.332 106.273L412.193 110.398Z" fill="#E30613"/>
<path d="M409.873 118.817L466.986 134.593L468.126 130.468L411.012 114.691L409.873 118.817Z" fill="#E30613"/>
<path d="M407.669 126.783L464.783 142.559L465.922 138.434L408.809 122.657L407.669 126.783Z" fill="#E30613"/>
<path d="M405.465 134.758L499.674 160.781L500.813 156.656L406.604 130.633L405.465 134.758Z" fill="#E30613"/>
<path d="M403.119 143.259L497.328 169.283L498.467 165.158L404.258 139.134L403.119 143.259Z" fill="#E30613"/>
<path d="M400.838 151.515C416.211 156.389 432.204 161.144 448.805 165.714C464.62 170.066 480.052 173.996 495.048 177.542C495.431 176.169 495.808 174.788 496.191 173.415L401.98 147.387L400.838 151.515Z" fill="#E30613"/>
<path d="M504.11 126.399L505.246 126.135L506.111 126.921L506.203 125.758L507.22 125.177L506.144 124.728L505.906 123.585L505.147 124.464L503.984 124.338L504.592 125.336L504.11 126.399Z" fill="#F6F6F6"/>
<path d="M498.457 124.84L499.593 124.57L500.452 125.355L500.551 124.193L501.568 123.618L500.491 123.163L500.254 122.02L499.488 122.905L498.332 122.78L498.933 123.777L498.457 124.84Z" fill="#F6F6F6"/>
<path d="M492.836 123.288L493.972 123.024L494.837 123.803L494.936 122.641L495.947 122.066L494.87 121.611L494.633 120.468L493.873 121.353L492.711 121.228L493.318 122.225L492.836 123.288Z" fill="#F6F6F6"/>
<path d="M486.92 121.651L488.055 121.386L488.92 122.172L489.02 121.01L490.03 120.429L488.953 119.98L488.722 118.837L487.956 119.722L486.801 119.59L487.402 120.587L486.92 121.651Z" fill="#F6F6F6"/>
<path d="M480.707 119.933L481.843 119.669L482.708 120.455L482.807 119.293L483.818 118.712L482.741 118.262L482.504 117.12L481.744 118.005L480.582 117.873L481.19 118.87L480.707 119.933Z" fill="#F6F6F6"/>
<path d="M474.493 118.216L475.628 117.952L476.493 118.738L476.586 117.576L477.603 116.994L476.527 116.545L476.289 115.403L475.529 116.288L474.367 116.156L474.975 117.153L474.493 118.216Z" fill="#F6F6F6"/>
<path d="M476.395 123.018L477.531 122.747L478.389 123.533L478.488 122.37L479.499 121.796L478.429 121.34L478.191 120.198L477.425 121.082L476.27 120.957L476.87 121.954L476.395 123.018Z" fill="#F6F6F6"/>
<path d="M482.832 124.794L483.968 124.53L484.833 125.316L484.926 124.154L485.943 123.572L484.866 123.123L484.629 121.981L483.869 122.859L482.707 122.734L483.308 123.731L482.832 124.794Z" fill="#F6F6F6"/>
<path d="M489.047 126.511L490.183 126.247L491.048 127.033L491.147 125.871L492.158 125.289L491.081 124.84L490.843 123.698L490.084 124.576L488.922 124.451L489.529 125.448L489.047 126.511Z" fill="#F6F6F6"/>
<path d="M494.811 128.103L495.947 127.839L496.812 128.625L496.911 127.462L497.921 126.881L496.845 126.432L496.607 125.29L495.848 126.168L494.686 126.042L495.293 127.04L494.811 128.103Z" fill="#F6F6F6"/>
<path d="M500.576 129.701L501.712 129.43L502.577 130.216L502.676 129.054L503.686 128.473L502.61 128.024L502.379 126.881L501.613 127.766L500.457 127.634L501.058 128.631L500.576 129.701Z" fill="#F6F6F6"/>
<path d="M501.891 134.436L503.027 134.165L503.892 134.951L503.991 133.789L505.001 133.208L503.925 132.759L503.687 131.616L502.928 132.501L501.766 132.369L502.373 133.366L501.891 134.436Z" fill="#F6F6F6"/>
<path d="M496.239 132.871L497.375 132.607L498.24 133.393L498.332 132.224L499.349 131.649L498.273 131.194L498.035 130.051L497.275 130.936L496.113 130.811L496.714 131.808L496.239 132.871Z" fill="#F6F6F6"/>
<path d="M490.618 131.319L491.753 131.055L492.618 131.841L492.718 130.678L493.728 130.097L492.652 129.642L492.414 128.506L491.654 129.384L490.492 129.259L491.1 130.256L490.618 131.319Z" fill="#F6F6F6"/>
<path d="M484.701 129.688L485.837 129.417L486.702 130.203L486.801 129.041L487.811 128.46L486.741 128.01L486.504 126.868L485.738 127.753L484.582 127.621L485.183 128.625L484.701 129.688Z" fill="#F6F6F6"/>
<path d="M478.489 127.971L479.625 127.7L480.49 128.486L480.589 127.323L481.599 126.742L480.523 126.293L480.285 125.151L479.525 126.036L478.363 125.904L478.971 126.907L478.489 127.971Z" fill="#F6F6F6"/>
<path d="M472.274 126.254L473.41 125.983L474.275 126.769L474.374 125.606L475.384 125.025L474.308 124.576L474.07 123.434L473.311 124.319L472.148 124.186L472.756 125.19L472.274 126.254Z" fill="#F6F6F6"/>
<path d="M474.176 131.048L475.312 130.784L476.17 131.563L476.27 130.401L477.28 129.827L476.21 129.371L475.972 128.228L475.206 129.113L474.051 128.988L474.652 129.985L474.176 131.048Z" fill="#F6F6F6"/>
<path d="M480.614 132.825L481.75 132.561L482.615 133.347L482.707 132.184L483.724 131.603L482.648 131.154L482.41 130.011L481.65 130.896L480.488 130.764L481.089 131.762L480.614 132.825Z" fill="#F6F6F6"/>
<path d="M486.829 134.542L487.964 134.278L488.829 135.064L488.928 133.901L489.939 133.32L488.862 132.871L488.625 131.729L487.865 132.607L486.703 132.481L487.311 133.479L486.829 134.542Z" fill="#F6F6F6"/>
<path d="M492.592 136.14L493.728 135.87L494.593 136.655L494.692 135.493L495.702 134.912L494.626 134.463L494.388 133.32L493.629 134.205L492.467 134.073L493.074 135.077L492.592 136.14Z" fill="#F6F6F6"/>
<path d="M498.357 137.732L499.493 137.461L500.358 138.247L500.457 137.085L501.467 136.51L500.398 136.054L500.16 134.912L499.394 135.797L498.238 135.671L498.839 136.669L498.357 137.732Z" fill="#F6F6F6"/>
<path d="M499.897 142.527L501.033 142.262L501.898 143.048L501.997 141.886L503.007 141.305L501.931 140.856L501.693 139.713L500.934 140.598L499.771 140.466L500.379 141.463L499.897 142.527Z" fill="#F6F6F6"/>
<path d="M494.243 140.968L495.378 140.704L496.243 141.483L496.336 140.321L497.353 139.746L496.276 139.29L496.039 138.148L495.279 139.033L494.117 138.907L494.718 139.905L494.243 140.968Z" fill="#F6F6F6"/>
<path d="M488.624 139.416L489.759 139.152L490.624 139.931L490.723 138.769L491.734 138.194L490.657 137.738L490.42 136.596L489.66 137.481L488.498 137.355L489.106 138.353L488.624 139.416Z" fill="#F6F6F6"/>
<path d="M482.707 137.778L483.843 137.514L484.708 138.3L484.807 137.137L485.817 136.556L484.747 136.107L484.509 134.965L483.743 135.85L482.588 135.717L483.189 136.715L482.707 137.778Z" fill="#F6F6F6"/>
<path d="M476.495 136.068L477.63 135.797L478.495 136.583L478.594 135.42L479.605 134.839L478.528 134.39L478.291 133.248L477.531 134.133L476.369 134L476.977 134.998L476.495 136.068Z" fill="#F6F6F6"/>
<path d="M470.28 134.351L471.416 134.08L472.281 134.866L472.38 133.703L473.39 133.122L472.314 132.673L472.076 131.531L471.316 132.415L470.154 132.283L470.762 133.281L470.28 134.351Z" fill="#F6F6F6"/>
<path d="M472.182 139.145L473.318 138.874L474.176 139.66L474.275 138.498L475.286 137.923L474.216 137.468L473.978 136.325L473.212 137.21L472.057 137.085L472.658 138.082L472.182 139.145Z" fill="#F6F6F6"/>
<path d="M478.62 140.922L479.755 140.658L480.62 141.444L480.713 140.281L481.73 139.7L480.653 139.251L480.416 138.108L479.656 138.987L478.494 138.861L479.095 139.859L478.62 140.922Z" fill="#F6F6F6"/>
<path d="M484.834 142.639L485.97 142.375L486.835 143.161L486.934 141.998L487.945 141.417L486.868 140.968L486.631 139.825L485.871 140.704L484.709 140.578L485.316 141.576L484.834 142.639Z" fill="#F6F6F6"/>
<path d="M490.598 144.23L491.734 143.966L492.599 144.752L492.698 143.59L493.708 143.009L492.632 142.56L492.394 141.417L491.635 142.302L490.473 142.17L491.08 143.167L490.598 144.23Z" fill="#F6F6F6"/>
<path d="M496.363 145.829L497.499 145.558L498.364 146.344L498.463 145.182L499.473 144.6L498.403 144.151L498.166 143.009L497.4 143.894L496.244 143.762L496.845 144.766L496.363 145.829Z" fill="#F6F6F6"/>
<path d="M497.473 150.438L498.609 150.168L499.467 150.954L499.566 149.791L500.583 149.217L499.507 148.761L499.269 147.618L498.503 148.503L497.348 148.378L497.949 149.375L497.473 150.438Z" fill="#F6F6F6"/>
<path d="M491.814 148.873L492.95 148.609L493.815 149.395L493.914 148.233L494.924 147.651L493.855 147.202L493.617 146.06L492.851 146.938L491.695 146.813L492.296 147.81L491.814 148.873Z" fill="#F6F6F6"/>
<path d="M486.202 147.321L487.337 147.057L488.202 147.843L488.295 146.681L489.312 146.099L488.235 145.65L487.998 144.508L487.238 145.393L486.076 145.261L486.684 146.258L486.202 147.321Z" fill="#F6F6F6"/>
<path d="M480.284 145.69L481.419 145.426L482.284 146.205L482.384 145.043L483.394 144.468L482.317 144.012L482.08 142.87L481.32 143.755L480.158 143.629L480.766 144.627L480.284 145.69Z" fill="#F6F6F6"/>
<path d="M474.071 143.973L475.207 143.709L476.072 144.488L476.164 143.326L477.181 142.751L476.105 142.295L475.867 141.153L475.108 142.038L473.945 141.912L474.546 142.91L474.071 143.973Z" fill="#F6F6F6"/>
<path d="M467.856 142.256L468.992 141.992L469.85 142.771L469.949 141.609L470.966 141.034L469.89 140.578L469.652 139.436L468.886 140.321L467.73 140.195L468.331 141.193L467.856 142.256Z" fill="#F6F6F6"/>
<path d="M231.733 137.402C244.577 142.408 258.846 147.308 274.463 151.707C292.484 156.779 309.362 160.345 324.695 162.868C324.742 162.881 324.973 162.94 325.21 162.802C325.362 162.716 325.481 162.571 325.527 162.392L343.522 96.6798C343.621 96.3232 343.409 95.9468 343.046 95.8477C327.924 92.6116 312.07 88.7943 295.607 84.2704C279.574 79.8654 264.387 75.1895 250.077 70.3816C250.031 70.3684 249.8 70.309 249.562 70.4477C249.41 70.5335 249.291 70.6788 249.245 70.8571L231.251 136.57C231.152 136.926 231.363 137.303 231.726 137.402H231.733Z" fill="#312783"/>
<path d="M275.805 138.115L277.951 137.607L279.589 139.086L279.767 136.887L281.682 135.79L279.648 134.938L279.192 132.779L277.753 134.45L275.561 134.212L276.703 136.101L275.805 138.115Z" fill="#FFED00"/>
<path d="M265.991 131.748L268.137 131.24L269.775 132.719L269.953 130.52L271.868 129.417L269.828 128.565L269.379 126.406L267.939 128.083L265.74 127.845L266.889 129.734L265.991 131.748Z" fill="#FFED00"/>
<path d="M262.063 121.585L264.209 121.076L265.846 122.562L266.025 120.363L267.94 119.26L265.906 118.408L265.45 116.248L264.011 117.926L261.818 117.688L262.967 119.57L262.063 121.585Z" fill="#FFED00"/>
<path d="M263.733 110.139L265.885 109.631L267.523 111.11L267.701 108.911L269.616 107.815L267.576 106.963L267.127 104.803L265.687 106.474L263.488 106.236L264.637 108.125L263.733 110.139Z" fill="#FFED00"/>
<path d="M270.112 101.6L272.258 101.091L273.895 102.577L274.08 100.372L275.989 99.2752L273.955 98.4233L273.499 96.2637L272.06 97.9346L269.867 97.7034L271.016 99.5856L270.112 101.6Z" fill="#FFED00"/>
<path d="M281.754 96.0194L283.907 95.5108L285.538 96.9902L285.723 94.791L287.638 93.6881L285.597 92.8427L285.142 90.6765L283.709 92.354L281.51 92.1162L282.659 94.0051L281.754 96.0194Z" fill="#FFED00"/>
<path d="M292.485 97.9215L294.631 97.4129L296.268 98.8923L296.447 96.6931L298.362 95.5967L296.328 94.7448L295.872 92.5852L294.433 94.2561L292.24 94.0249L293.383 95.9072L292.485 97.9215Z" fill="#FFED00"/>
<path d="M302.35 104.209L304.496 103.7L306.134 105.18L306.312 102.98L308.227 101.884L306.186 101.032L305.737 98.8726L304.298 100.543L302.105 100.306L303.248 102.195L302.35 104.209Z" fill="#FFED00"/>
<path d="M306.696 115.746L308.842 115.238L310.479 116.724L310.658 114.518L312.573 113.422L310.539 112.57L310.083 110.41L308.643 112.088L306.451 111.85L307.6 113.732L306.696 115.746Z" fill="#FFED00"/>
<path d="M305.393 126.538L307.539 126.029L309.177 127.508L309.355 125.309L311.27 124.213L309.229 123.361L308.78 121.201L307.341 122.872L305.148 122.641L306.291 124.523L305.393 126.538Z" fill="#FFED00"/>
<path d="M298.11 135.797L300.256 135.288L301.893 136.768L302.072 134.569L303.987 133.466L301.953 132.62L301.497 130.454L300.058 132.132L297.865 131.894L299.014 133.783L298.11 135.797Z" fill="#FFED00"/>
<path d="M287.875 140.374L290.028 139.865L291.666 141.344L291.844 139.145L293.759 138.049L291.718 137.197L291.269 135.037L289.83 136.708L287.631 136.47L288.78 138.359L287.875 140.374Z" fill="#FFED00"/>
<path d="M291.429 284.124L293.594 284.717C293.942 284.812 294.302 284.607 294.397 284.259L345.548 97.3855C345.644 97.0373 345.439 96.6776 345.09 96.5823L342.925 95.9894C342.577 95.8941 342.217 96.0991 342.122 96.4474L290.971 283.321C290.875 283.669 291.08 284.029 291.429 284.124Z" fill="#775637"/>
<path d="M186.268 23.6838L183.098 24.2623C182.743 24.3271 182.508 24.6676 182.572 25.0228L221.735 239.697C221.8 240.052 222.14 240.288 222.495 240.223L225.666 239.645C226.021 239.58 226.256 239.239 226.191 238.884L187.029 24.2097C186.964 23.8544 186.623 23.619 186.268 23.6838Z" fill="#775637"/>
<path d="M295.421 79.0862C277.433 80.6382 257.57 83.3724 236.287 87.9095C223.206 90.6965 210.95 93.8798 199.566 97.2611C195.413 74.5028 191.259 51.7511 187.105 28.9928C210.673 23.8085 228.112 21.5762 240.084 20.513C246.12 19.978 259.465 18.9676 276.667 14.2983C282.135 12.8124 286.592 11.3396 289.59 10.2896C290.937 13.5653 292.192 17.0457 293.294 20.7375C300.03 43.2514 298.445 64.0021 295.421 79.0862Z" fill="#E62F31"/>
<path d="M206.045 34.3291L209.663 39.1964L215.725 38.9785L212.212 43.9251L214.299 49.6246L208.508 47.8084L203.733 51.553L203.667 45.4837L198.629 42.0957L204.38 40.1607L206.045 34.3291Z" fill="#FFE914"/>
<path d="M223.575 27.0974L224.097 28.7749L225.774 29.2966L224.341 30.3071L224.361 32.0638L222.955 31.0137L221.291 31.5751L221.859 29.9174L220.809 28.5107L222.558 28.5305L223.575 27.0974Z" fill="#FFE914"/>
<path d="M233.104 33.497L232.675 35.1943L233.83 36.5152L232.074 36.6341L231.176 38.1398L230.529 36.5086L228.818 36.1189L230.165 34.9962L230.007 33.2527L231.493 34.1905L233.104 33.497Z" fill="#FFE914"/>
<path d="M229.837 53.3494L228.443 54.4259L228.542 56.1761L227.096 55.1854L225.459 55.8194L225.947 54.1353L224.838 52.7749L226.594 52.722L227.545 51.2493L228.14 52.9003L229.837 53.3494Z" fill="#FFE914"/>
<path d="M235.514 44.5459L234.523 45.9922L235.157 47.6301L233.474 47.1348L232.107 48.2377L232.06 46.4876L230.588 45.5299L232.239 44.9422L232.694 43.2449L233.764 44.6384L235.514 44.5459Z" fill="#FFE914"/>
<path d="M37.6204 343.217C34.9064 339.908 33.2159 336.012 32.2122 331.131C30.9378 324.91 30.8519 318.438 31.9943 312.19C33.1433 305.89 36.0356 300.336 37.759 294.227C39.5288 287.966 39.2646 281.514 40.5325 275.206C42.5729 264.97 47.6245 249.655 55.3372 242.297C61.2209 236.684 76.6331 236.129 82.5234 241.597C94.8519 253.036 102.565 271.343 106.593 287.292C108.567 295.112 110.258 302.997 111.697 310.936C113.493 320.868 113.553 333.159 108.349 342.359C104.698 348.818 94.8189 352.073 87.8721 353.771C73.8069 357.212 57.1069 357.218 44.5209 349.181C41.7013 347.378 39.4297 345.43 37.6138 343.217H37.6204Z" fill="#BC8A4D"/>
<mask id="mask0_710_16011" style="mask-type:luminance" maskUnits="userSpaceOnUse" x="31" y="237" width="82" height="119">
<path d="M37.6204 343.217C34.9064 339.908 33.2159 336.012 32.2122 331.131C30.9378 324.91 30.8519 318.438 31.9943 312.19C33.1433 305.89 36.0356 300.336 37.759 294.227C39.5288 287.966 39.2646 281.514 40.5325 275.206C42.5729 264.97 47.6245 249.655 55.3372 242.297C61.2209 236.684 76.6331 236.129 82.5234 241.597C94.8519 253.036 102.565 271.343 106.593 287.292C108.567 295.112 110.258 302.997 111.697 310.936C113.493 320.868 113.553 333.159 108.349 342.359C104.698 348.818 94.8189 352.073 87.8721 353.771C73.8069 357.212 57.1069 357.218 44.5209 349.181C41.7013 347.378 39.4297 345.43 37.6138 343.217H37.6204Z" fill="white"/>
</mask>
<g mask="url(#mask0_710_16011)">
<path d="M124.81 248.215C122.968 247.805 121.086 247.634 119.204 247.779C114.621 248.122 110.078 250.52 107.912 254.476C131.691 272.578 134.861 304.734 130.364 331.825C129.373 337.775 131.797 340.906 136.98 336.613C140.718 333.516 142.765 329.751 144.752 325.432C149.936 314.165 151.937 301.544 150.722 289.267C149.309 274.969 145.868 259.145 132.298 251.233C129.974 249.879 127.438 248.809 124.81 248.221V248.215Z" fill="#725741"/>
<path d="M104.822 358.777C105.78 359.365 106.73 359.886 107.417 360.329C108.976 361.333 110.686 362.376 112.548 362.264C113.651 362.198 114.674 361.722 115.665 361.247C118.887 359.688 121.997 358.064 124.824 355.93C127.604 353.837 130.291 352.49 131.949 349.254C135.356 342.596 132.702 336.785 128.528 331.231C128.218 330.814 127.874 330.392 127.399 330.194C126.917 329.989 126.257 330.095 126.012 330.544C125.86 330.828 125.9 331.164 125.926 331.481C126.521 337.729 125.451 343.812 121.04 348.646C116.933 353.143 111.729 354.669 105.852 355.356C104.598 355.501 103.33 355.825 102.062 356.016C101.936 356.036 101.798 356.063 101.738 356.168C101.672 356.287 101.738 356.432 101.804 356.545C102.458 357.628 103.779 358.136 104.829 358.777H104.822Z" fill="white"/>
</g>
<path d="M65.368 201.397C66.0812 202.592 66.8472 203.761 67.6528 204.877C68.115 205.511 68.5112 205.994 69.264 206.079C67.8971 205.921 67.2896 192.177 67.3953 190.659C67.8641 183.856 69.8847 177.14 73.5496 171.374C79.1691 162.551 88.7638 156.171 99.1773 155.174C109.591 154.183 120.546 158.925 126.344 167.629C130.398 173.719 131.62 180.25 133.251 187.119C134.103 190.711 140.647 202.744 145.051 202.738C136.077 202.751 127.149 199.786 119.866 194.555C112.51 189.265 108.125 182.258 99.0651 179.015C93.4852 177.014 86.895 176.941 81.9623 180.237C77.1815 183.433 75.6825 189.879 75.2863 195.314C74.8901 200.723 79.8426 205.683 78.8918 210.663C77.2475 219.275 62.621 217.214 60.8315 209.619C60.1448 206.7 62.5418 205.941 60.8843 203.108C59.2071 200.241 53.8583 197.619 51.4877 194.892C44.4089 186.762 41.5034 175.178 43.9004 164.671C48.1464 146.033 68.5509 132.092 86.6507 130.375C93.2145 129.754 99.8641 130.177 106.388 129.199C112.906 128.222 119.1 125.62 123.326 120.422C122.17 132.508 112.622 142.058 101.885 146.549C92.3164 150.544 81.6784 152.506 73.4175 158.773C59.9863 168.963 56.9619 187.264 65.368 201.377V201.397Z" fill="#BC894D"/>
<mask id="mask1_710_16011" style="mask-type:luminance" maskUnits="userSpaceOnUse" x="43" y="120" width="103" height="97">
<path d="M65.368 201.397C66.0812 202.592 66.8472 203.761 67.6528 204.877C68.115 205.511 68.5112 205.994 69.264 206.079C67.8971 205.921 67.2896 192.177 67.3953 190.659C67.8641 183.856 69.8847 177.14 73.5496 171.374C79.1691 162.551 88.7638 156.171 99.1773 155.174C109.591 154.183 120.546 158.925 126.344 167.629C130.398 173.719 131.62 180.25 133.251 187.119C134.103 190.711 140.647 202.744 145.051 202.738C136.077 202.751 127.149 199.786 119.866 194.555C112.51 189.265 108.125 182.258 99.0651 179.015C93.4852 177.014 86.895 176.941 81.9623 180.237C77.1815 183.433 75.6825 189.879 75.2863 195.314C74.8901 200.723 79.8426 205.683 78.8918 210.663C77.2475 219.275 62.621 217.214 60.8315 209.619C60.1448 206.7 62.5418 205.941 60.8843 203.108C59.2071 200.241 53.8583 197.619 51.4877 194.892C44.4089 186.762 41.5034 175.178 43.9004 164.671C48.1464 146.033 68.5509 132.092 86.6507 130.375C93.2145 129.754 99.8641 130.177 106.388 129.199C112.906 128.222 119.1 125.62 123.326 120.422C122.17 132.508 112.622 142.058 101.885 146.549C92.3164 150.544 81.6784 152.506 73.4175 158.773C59.9863 168.963 56.9619 187.264 65.368 201.377V201.397Z" fill="white"/>
</mask>
<g mask="url(#mask1_710_16011)">
<path d="M52.4191 174.973C52.1087 179.273 52.7294 183.717 54.3538 188.03C56.9358 194.872 61.9477 200.77 68.287 204.415C66.8937 197.56 65.4937 190.645 65.6192 183.651C65.7183 178.077 66.7616 171.797 69.8388 167.022C72.6452 162.663 79.2618 156.812 83.6927 154.071C90.3819 149.93 98.9201 149.943 106.072 146.872C116.511 142.388 123.755 131.306 123.683 119.94C123.703 123.183 114.649 132.343 111.876 134.364C106.699 138.135 100.062 140.235 93.9873 141.992C84.3332 144.792 74.2168 146.866 65.8041 152.373C57.7612 157.644 53.0596 166.005 52.4125 174.98L52.4191 174.973Z" fill="#725741"/>
</g>
<path d="M63.4669 357.443C64.781 360.725 68.9411 362.515 72.2494 361.273C75.5643 360.032 77.5123 356.003 76.502 352.615C73.6097 342.933 59.9803 348.738 63.4669 357.443Z" fill="white"/>
<path d="M56.6125 243.598C57.2663 245.322 57.6162 247.066 57.1606 248.743C56.6323 250.691 54.8428 251.748 53.4693 253.102C55.2192 252.475 57.5304 251.385 59.4058 251.893C61.017 252.329 62.5358 252.943 64.2394 253.128C67.6798 253.492 71.1268 253.828 74.5737 254.165C76.9443 254.396 82.3327 256.866 84.525 255.711C86.057 254.905 85.8721 251.537 86.9947 249.806C88.1437 248.05 89.6492 246.551 90.8114 244.8C94.5952 239.094 94.1329 231.387 91.3727 225.126C89.4577 220.787 86.5721 217.01 83.4949 213.437C80.9922 210.531 79.3942 207.255 77.0236 204.415C76.284 205.472 75.1152 207.262 73.6426 207.262C72.5597 207.394 71.4107 206.826 70.3277 206.806C69.0005 206.786 67.7458 206.918 66.4648 207.169C65.428 207.367 64.5828 207.414 63.7904 206.476C63.4734 206.099 63.0838 205.564 62.6216 205.743C62.4433 205.815 62.3244 205.981 62.2122 206.139C58.237 211.885 53.8061 216.389 52.5448 223.541C51.7855 227.88 52.076 232.417 53.4561 236.604C54.1627 238.744 55.6881 241.148 56.6059 243.592L56.6125 243.598Z" fill="#BC8A4D"/>
<path d="M347.634 357.43C344.92 354.121 343.23 350.224 342.226 345.344C340.951 339.123 340.866 332.65 342.008 326.403C343.157 320.102 346.049 314.548 347.773 308.439C349.542 302.178 349.278 295.726 350.546 289.419C352.587 279.182 357.638 263.867 365.351 256.51C371.235 250.896 386.647 250.341 392.537 255.81C404.866 267.248 412.578 285.555 416.606 301.505C418.581 309.324 420.271 317.21 421.711 325.148C423.507 335.081 423.566 347.371 418.363 356.571C414.711 363.03 404.833 366.286 397.886 367.983C383.821 371.424 367.121 371.431 354.535 363.393C351.715 361.59 349.443 359.642 347.627 357.43H347.634Z" fill="#BC8A4D"/>
<mask id="mask2_710_16011" style="mask-type:luminance" maskUnits="userSpaceOnUse" x="341" y="251" width="82" height="120">
<path d="M347.634 357.43C344.92 354.121 343.23 350.224 342.226 345.344C340.951 339.123 340.866 332.65 342.008 326.403C343.157 320.102 346.049 314.548 347.773 308.439C349.542 302.178 349.278 295.726 350.546 289.419C352.587 279.182 357.638 263.867 365.351 256.51C371.235 250.896 386.647 250.341 392.537 255.81C404.866 267.248 412.578 285.555 416.606 301.505C418.581 309.324 420.271 317.21 421.711 325.148C423.507 335.081 423.566 347.371 418.363 356.571C414.711 363.03 404.833 366.286 397.886 367.983C383.821 371.424 367.121 371.431 354.535 363.393C351.715 361.59 349.443 359.642 347.627 357.43H347.634Z" fill="white"/>
</mask>
<g mask="url(#mask2_710_16011)">
<path d="M434.824 262.427C432.981 262.018 431.1 261.846 429.218 261.991C424.635 262.335 420.092 264.732 417.926 268.688C441.705 286.79 444.874 318.947 440.377 346.037C439.387 351.988 441.81 355.118 446.994 350.825C450.731 347.728 452.778 343.964 454.766 339.644C459.95 328.377 461.95 315.757 460.735 303.479C459.322 289.181 455.882 273.357 442.312 265.445C439.988 264.092 437.452 263.022 434.824 262.434V262.427Z" fill="#725741"/>
<path d="M414.836 372.996C415.793 373.584 416.744 374.105 417.431 374.548C418.989 375.552 420.7 376.595 422.562 376.483C423.664 376.417 424.688 375.941 425.679 375.466C428.901 373.907 432.011 372.283 434.837 370.149C437.617 368.056 440.305 366.709 441.962 363.473C445.37 356.815 442.715 351.004 438.542 345.449C438.232 345.033 437.888 344.611 437.413 344.413C436.931 344.208 436.27 344.314 436.026 344.763C435.874 345.047 435.914 345.383 435.94 345.7C436.534 351.948 435.465 358.031 431.054 362.865C426.946 367.362 421.743 368.888 415.866 369.575C414.611 369.72 413.343 370.044 412.076 370.235C411.95 370.255 411.811 370.282 411.752 370.387C411.686 370.506 411.752 370.651 411.818 370.764C412.472 371.847 413.792 372.355 414.842 372.996H414.836Z" fill="white"/>
</g>
<path d="M384.144 215.847C383.174 216.911 382.289 218.014 381.523 219.077C379.594 221.758 379.132 219.612 379.7 217.63C381.859 210.055 389.103 205.551 395.429 201.952C402.251 198.069 410.604 197.375 418.224 198.742C426.544 200.235 433.306 205.056 440.775 208.702C448.309 212.38 456.504 215.154 464.884 214.949C473.283 214.744 481.967 211.938 486.351 204.296C477.173 204.382 468.35 200.849 460.123 196.774C450.35 191.933 441.845 184.391 430.969 181.941C419.968 179.458 408.18 182.37 398.619 188.354C386.898 195.691 377.283 207.394 371.287 219.823C365.305 232.233 386.013 233.989 388.337 223.786C388.885 221.395 383.557 218.852 389.949 216.567C392.339 215.709 395.225 215.577 397.747 215.735C401.689 215.979 405.599 217.366 408.887 219.546C415.642 224.03 420.152 231.11 424.583 237.899C429.014 244.688 433.828 251.642 440.894 255.625C445.8 258.392 451.756 259.29 457.31 258.716C460.162 258.418 462.995 257.712 465.597 256.497C468.179 255.288 471.507 253.412 473.224 251.061C467.545 251.841 463.187 250.87 458.333 247.535C454.001 244.563 450.581 240.349 447.847 235.911C440.656 224.222 433.637 212.268 420.212 206.892C415.57 205.036 411.443 204.567 406.536 204.864C400.857 205.208 396.407 207.526 391.454 210.003C388.839 211.31 386.297 213.496 384.157 215.841L384.144 215.847Z" fill="#BC894D"/>
<mask id="mask3_710_16011" style="mask-type:luminance" maskUnits="userSpaceOnUse" x="370" y="181" width="117" height="78">
<path d="M384.144 215.847C383.174 216.911 382.289 218.014 381.523 219.077C379.594 221.758 379.132 219.612 379.7 217.63C381.859 210.055 389.103 205.551 395.429 201.952C402.251 198.069 410.604 197.375 418.224 198.742C426.544 200.235 433.306 205.056 440.775 208.702C448.309 212.38 456.504 215.154 464.884 214.949C473.283 214.744 481.967 211.938 486.351 204.296C477.173 204.382 468.35 200.849 460.123 196.774C450.35 191.933 441.845 184.391 430.969 181.941C419.968 179.458 408.18 182.37 398.619 188.354C386.898 195.691 377.283 207.394 371.287 219.823C365.305 232.233 386.013 233.989 388.337 223.786C388.885 221.395 383.557 218.852 389.949 216.567C392.339 215.709 395.225 215.577 397.747 215.735C401.689 215.979 405.599 217.366 408.887 219.546C415.642 224.03 420.152 231.11 424.583 237.899C429.014 244.688 433.828 251.642 440.894 255.625C445.8 258.392 451.756 259.29 457.31 258.716C460.162 258.418 462.995 257.712 465.597 256.497C468.179 255.288 471.507 253.412 473.224 251.061C467.545 251.841 463.187 250.87 458.333 247.535C454.001 244.563 450.581 240.349 447.847 235.911C440.656 224.222 433.637 212.268 420.212 206.892C415.57 205.036 411.443 204.567 406.536 204.864C400.857 205.208 396.407 207.526 391.454 210.003C388.839 211.31 386.297 213.496 384.157 215.841L384.144 215.847Z" fill="white"/>
</mask>
<g mask="url(#mask3_710_16011)">
<path d="M387.618 220.959C387.618 220.959 387.578 220.939 387.559 220.933C386.515 220.424 386.832 218.859 387.275 218.113C388.43 216.178 390.9 214.837 392.888 213.919C402.013 209.719 413.662 211.416 421.949 216.785C425.158 218.865 427.998 221.534 430.197 224.671C435.578 232.345 437.355 242.41 444.955 248.492C452.694 254.687 464.587 255.466 473.317 251.081C472.425 251.53 471.138 254.733 470.206 255.631C468.985 256.814 467.473 257.725 466.053 258.623C463.412 260.301 460.348 261.45 457.218 261.668C450.363 262.143 443.403 259.198 438.055 255.09C430.698 249.437 425.409 241.591 419.479 234.458C417.122 231.625 414.619 228.864 411.562 226.81C410.637 226.19 409.667 225.641 408.67 225.153C407.633 224.651 406.391 224.367 405.434 223.739C403.526 222.504 401.736 221.963 399.471 221.534C397.734 221.203 395.991 220.873 394.221 220.761C393.059 220.682 391.897 220.695 390.735 220.754C389.969 220.794 388.344 221.23 387.618 220.946V220.959Z" fill="#725741"/>
<path d="M388.008 203.583C393.343 198.538 400.105 195.103 407.534 193.987C413.094 193.149 419.73 194.093 425.072 195.797C431.18 197.745 436.707 201.153 442.492 203.92C449.472 207.262 456.57 209.355 464.29 210.055C471.382 210.696 478.996 207.751 485.711 205.631C488.24 204.831 489.799 203.867 491.694 202.011C490.809 202.877 491.04 206.872 490.664 208.107C490.083 210.036 488.491 212.103 486.821 213.212C483.624 215.345 480.336 217.34 476.962 219.189C472.293 221.745 467.202 224.076 461.886 223.739C455.6 223.337 449.135 219.566 443.846 216.356C438.325 213.008 433.406 208.728 427.714 205.644C423.659 203.445 417.591 203.134 413.021 203.048C406.946 202.936 400.706 202.85 394.994 204.924C387.426 207.665 383.57 213.252 379.885 219.922C379.925 219.85 379.417 218.383 379.397 218.066C379.351 217.248 379.575 216.336 379.793 215.55C380.295 213.714 381.246 212.017 382.276 210.439C383.92 207.922 385.842 205.617 388.001 203.577L388.008 203.583Z" fill="#725741"/>
</g>
<path d="M373.481 371.655C374.795 374.937 378.955 376.727 382.263 375.486C385.578 374.244 387.526 370.215 386.516 366.827C383.623 357.146 369.994 362.951 373.481 371.655Z" fill="white"/>
<path d="M392.551 257.811C391.897 259.535 391.547 261.278 392.003 262.956C392.531 264.904 394.321 265.96 395.694 267.314C393.944 266.687 391.633 265.597 389.758 266.106C388.146 266.542 386.628 267.156 384.924 267.341C381.484 267.704 378.037 268.041 374.59 268.378C372.219 268.609 366.831 271.079 364.638 269.923C363.106 269.117 363.291 265.749 362.169 264.019C361.02 262.262 359.514 260.763 358.352 259.013C354.568 253.307 355.03 245.6 357.791 239.339C359.706 235 362.591 231.222 365.669 227.649C368.171 224.743 369.769 221.468 372.14 218.628C372.879 219.684 374.048 221.474 375.521 221.474C376.604 221.606 377.753 221.038 378.836 221.018C380.163 220.999 381.418 221.131 382.699 221.382C383.735 221.58 384.581 221.626 385.373 220.688C385.69 220.312 386.08 219.777 386.542 219.955C386.72 220.028 386.839 220.193 386.951 220.351C390.926 226.097 395.357 230.601 396.619 237.754C397.378 242.093 397.087 246.63 395.707 250.817C395.001 252.957 393.475 255.361 392.557 257.804L392.551 257.811Z" fill="#BC8A4D"/>
<path d="M266.023 350.277C263.309 346.968 261.618 343.072 260.615 338.191C259.34 331.97 259.254 325.498 260.397 319.25C261.546 312.95 264.438 307.395 266.161 301.287C267.931 295.026 267.667 288.573 268.935 282.266C270.975 272.03 276.027 256.714 283.74 249.357C289.623 243.744 305.035 243.189 310.926 248.657C323.254 260.096 330.967 278.403 334.995 294.352C336.969 302.172 338.66 310.057 340.099 317.995C341.896 327.928 341.955 340.219 336.752 349.418C333.1 355.877 323.221 359.133 316.274 360.831C302.209 364.271 285.509 364.278 272.923 356.241C270.104 354.438 267.832 352.489 266.016 350.277H266.023Z" fill="#BC8A4D"/>
<mask id="mask4_710_16011" style="mask-type:luminance" maskUnits="userSpaceOnUse" x="259" y="244" width="83" height="120">
<path d="M266.023 350.277C263.309 346.968 261.618 343.072 260.615 338.191C259.34 331.97 259.254 325.498 260.397 319.25C261.546 312.95 264.438 307.395 266.161 301.287C267.931 295.026 267.667 288.573 268.935 282.266C270.975 272.03 276.027 256.714 283.74 249.357C289.623 243.744 305.035 243.189 310.926 248.657C323.254 260.096 330.967 278.403 334.995 294.352C336.969 302.172 338.66 310.057 340.099 317.995C341.896 327.928 341.955 340.219 336.752 349.418C333.1 355.877 323.221 359.133 316.274 360.831C302.209 364.271 285.509 364.278 272.923 356.241C270.104 354.438 267.832 352.489 266.016 350.277H266.023Z" fill="white"/>
</mask>
<g mask="url(#mask4_710_16011)">
<path d="M353.22 255.281C351.378 254.872 349.496 254.7 347.614 254.845C343.031 255.189 338.488 257.586 336.322 261.542C360.101 279.644 363.271 311.801 358.774 338.891C357.783 344.842 360.207 347.972 365.39 343.679C369.128 340.582 371.175 336.818 373.163 332.498C378.346 321.231 380.347 308.611 379.132 296.333C377.719 282.035 374.278 266.211 360.709 258.299C358.384 256.946 355.848 255.876 353.22 255.288V255.281Z" fill="#725741"/>
<path d="M333.232 365.843C334.19 366.431 335.141 366.953 335.827 367.395C337.386 368.399 339.096 369.443 340.958 369.33C342.061 369.264 343.084 368.789 344.075 368.313C347.297 366.755 350.408 365.13 353.234 362.997C356.014 360.903 358.701 359.556 360.359 356.32C363.766 349.663 361.112 343.851 356.938 338.297C356.628 337.881 356.285 337.458 355.809 337.26C355.327 337.055 354.667 337.161 354.422 337.61C354.271 337.894 354.31 338.231 354.337 338.548C354.931 344.795 353.861 350.878 349.45 355.712C345.343 360.21 340.139 361.735 334.262 362.422C333.008 362.568 331.74 362.891 330.472 363.083C330.347 363.103 330.208 363.129 330.148 363.235C330.082 363.353 330.148 363.499 330.214 363.611C330.868 364.694 332.189 365.203 333.239 365.843H333.232Z" fill="white"/>
</g>
<path d="M294.378 210.643C294.966 213.377 295.851 215.226 297.244 214.956C297.924 214.823 302.151 195.915 303.207 193.36C306.383 185.659 312.874 178.843 319.683 174.253C332.407 165.892 348.784 163.872 360.511 154.163C355.757 170.965 344.439 185.818 329.508 194.865C324.985 197.606 320.382 200.492 315.793 203.081C311.441 205.538 306.502 207.803 303.471 211.97C302.434 213.397 302.124 215.51 303.233 216.877C304.079 217.908 305.479 218.271 306.575 219.03C308.747 220.536 309.467 223.653 308.543 226.137C307.625 228.62 305.32 230.423 302.778 231.182C300.242 231.935 297.502 231.737 294.933 231.103C292.107 230.403 289.274 229.049 287.696 226.599C286.124 224.149 286.302 220.437 288.68 218.76C289.617 218.093 290.813 217.782 291.605 216.943C294.966 213.384 286.692 206.495 284.52 204.6C279.745 200.439 273.829 197.428 269.259 193.095C263.369 187.502 258.482 181.3 255.907 173.494C252.572 163.383 252.17 152.552 252.42 141.906C253.319 148.167 257.716 153.391 262.656 157.34C267.595 161.283 273.234 164.321 278.055 168.415C284.011 173.474 288.838 180.25 291.506 187.607C294.246 195.163 292.714 202.916 294.378 210.656V210.643Z" fill="#BC894D"/>
<mask id="mask5_710_16011" style="mask-type:luminance" maskUnits="userSpaceOnUse" x="252" y="141" width="109" height="91">
<path d="M294.378 210.643C294.966 213.377 295.851 215.226 297.244 214.956C297.924 214.823 302.151 195.915 303.207 193.36C306.383 185.659 312.874 178.843 319.683 174.253C332.407 165.892 348.784 163.872 360.511 154.163C355.757 170.965 344.439 185.818 329.508 194.865C324.985 197.606 320.382 200.492 315.793 203.081C311.441 205.538 306.502 207.803 303.471 211.97C302.434 213.397 302.124 215.51 303.233 216.877C304.079 217.908 305.479 218.271 306.575 219.03C308.747 220.536 309.467 223.653 308.543 226.137C307.625 228.62 305.32 230.423 302.778 231.182C300.242 231.935 297.502 231.737 294.933 231.103C292.107 230.403 289.274 229.049 287.696 226.599C286.124 224.149 286.302 220.437 288.68 218.76C289.617 218.093 290.813 217.782 291.605 216.943C294.966 213.384 286.692 206.495 284.52 204.6C279.745 200.439 273.829 197.428 269.259 193.095C263.369 187.502 258.482 181.3 255.907 173.494C252.572 163.383 252.17 152.552 252.42 141.906C253.319 148.167 257.716 153.391 262.656 157.34C267.595 161.283 273.234 164.321 278.055 168.415C284.011 173.474 288.838 180.25 291.506 187.607C294.246 195.163 292.714 202.916 294.378 210.656V210.643Z" fill="white"/>
</mask>
<g mask="url(#mask5_710_16011)">
<path d="M267.588 182.614C275.367 192.23 285.906 199.733 291.73 210.643C292.516 212.116 293.209 213.932 292.391 215.391C291.492 216.99 289.32 217.234 287.484 217.188C279.6 216.976 271.781 214.843 264.881 211.026C258.905 207.717 253.602 203.127 249.759 197.481C242.013 186.108 240.752 171.638 240.402 157.881C240.27 152.73 240.323 147.249 243.103 142.916C244.734 140.374 248.326 136.246 250.71 139.548C253.18 142.962 252.612 146.331 253.272 150.181C253.886 153.78 254.949 157.538 256.046 161.025C258.515 168.858 262.424 176.235 267.588 182.621V182.614Z" fill="#725741"/>
<path d="M333.933 171.79C339.368 168.64 344.915 165.648 350.158 162.207C355.137 158.938 361.199 155.537 362.447 149.151C362.156 150.577 357.943 151.759 356.794 152.03C354.351 152.618 351.247 155.233 348.824 155.233C343.409 157.459 337.994 159.684 332.58 161.91C326.168 164.545 319.71 167.207 313.912 171.011C308.114 174.815 302.957 179.893 300.157 186.234C298.275 190.5 297.529 195.149 297.383 199.786C297.258 203.874 298.764 208.946 297.007 212.657C296.684 213.338 296.71 214.381 297.43 214.599C298.216 214.837 298.797 213.866 299.034 213.08C301.861 203.867 306.39 195.202 312.743 187.924C318.732 181.056 326.207 176.255 333.927 171.783L333.933 171.79Z" fill="#725741"/>
</g>
<path d="M291.875 364.509C293.189 367.791 297.349 369.581 300.658 368.34C303.972 367.098 305.92 363.069 304.91 359.681C302.018 350 288.389 355.805 291.875 364.509Z" fill="white"/>
<path d="M285.016 250.665C285.669 252.388 286.019 254.132 285.564 255.809C285.035 257.758 283.246 258.814 281.872 260.168C283.622 259.541 285.933 258.451 287.809 258.96C289.42 259.396 290.939 260.01 292.643 260.195C296.083 260.558 299.53 260.895 302.977 261.232C305.347 261.463 310.736 263.933 312.928 262.777C314.605 261.892 314.936 257.883 315.814 256.265C316.877 254.31 318.567 252.151 319.921 250.348C323.573 245.494 326.94 241.148 324.841 234.623C323.091 229.194 318.343 226.011 314.203 222.491C309.917 218.852 304.865 215.959 299.087 215.807C289.592 215.55 282.612 221.117 280.941 230.614C280.182 234.953 280.472 239.49 281.853 243.677C282.559 245.817 284.085 248.221 285.002 250.665H285.016Z" fill="#BC8A4D"/>
<path d="M112.7 364.04C109.986 360.732 108.296 356.835 107.292 351.955C106.018 345.733 105.932 339.261 107.074 333.014C108.223 326.713 111.116 321.159 112.839 315.05C114.609 308.789 114.345 302.337 115.613 296.03C117.653 285.793 122.705 270.478 130.417 263.121C136.301 257.507 151.713 256.952 157.603 262.421C169.932 273.859 177.645 292.166 181.673 308.115C183.647 315.935 185.338 323.82 186.777 331.759C188.573 341.692 188.633 353.982 183.429 363.182C179.778 369.641 169.899 372.897 162.952 374.594C148.887 378.035 132.187 378.041 119.601 370.004C116.781 368.201 114.51 366.253 112.694 364.04H112.7Z" fill="#BC8A4D"/>
<mask id="mask6_710_16011" style="mask-type:luminance" maskUnits="userSpaceOnUse" x="106" y="258" width="82" height="119">
<path d="M112.7 364.04C109.986 360.732 108.296 356.835 107.292 351.955C106.018 345.733 105.932 339.261 107.074 333.014C108.223 326.713 111.116 321.159 112.839 315.05C114.609 308.789 114.345 302.337 115.613 296.03C117.653 285.793 122.705 270.478 130.417 263.121C136.301 257.507 151.713 256.952 157.603 262.421C169.932 273.859 177.645 292.166 181.673 308.115C183.647 315.935 185.338 323.82 186.777 331.759C188.573 341.692 188.633 353.982 183.429 363.182C179.778 369.641 169.899 372.897 162.952 374.594C148.887 378.035 132.187 378.041 119.601 370.004C116.781 368.201 114.51 366.253 112.694 364.04H112.7Z" fill="white"/>
</mask>
<g mask="url(#mask6_710_16011)">
<path d="M199.892 269.038C198.05 268.629 196.168 268.457 194.286 268.602C189.703 268.946 185.16 271.343 182.994 275.299C206.773 293.401 209.943 325.557 205.446 352.648C204.455 358.599 206.879 361.729 212.062 357.436C215.8 354.339 217.847 350.574 219.834 346.255C225.018 334.988 227.019 322.368 225.804 310.09C224.391 295.792 220.95 279.968 207.38 272.056C205.056 270.702 202.52 269.632 199.892 269.045V269.038Z" fill="#725741"/>
<path d="M179.91 379.6C180.867 380.188 181.818 380.71 182.505 381.152C184.063 382.156 185.774 383.199 187.636 383.087C188.739 383.021 189.762 382.546 190.753 382.07C193.975 380.512 197.085 378.887 199.912 376.754C202.738 374.62 205.379 373.313 207.037 370.077C210.444 363.42 207.789 357.608 203.616 352.054C203.306 351.638 202.962 351.215 202.487 351.017C202.005 350.812 201.345 350.918 201.1 351.367C200.948 351.651 200.988 351.988 201.014 352.305C201.609 358.552 200.539 364.635 196.128 369.469C192.021 373.967 186.817 375.492 180.94 376.179C179.685 376.324 178.418 376.648 177.15 376.84C177.024 376.859 176.886 376.886 176.826 376.991C176.76 377.11 176.826 377.256 176.892 377.368C177.546 378.451 178.867 378.96 179.917 379.6H179.91Z" fill="white"/>
</g>
<path d="M140.104 222.452C141.074 223.515 141.959 224.618 142.725 225.681C144.653 228.362 145.116 226.216 144.548 224.235C142.388 216.66 135.144 212.156 128.818 208.556C121.997 204.673 113.644 203.979 106.024 205.347C97.7033 206.839 90.9414 211.66 83.473 215.306C75.9386 218.984 67.7438 221.758 59.3641 221.553C50.9646 221.349 42.2811 218.542 37.8965 210.901C47.0752 210.987 55.8973 207.453 64.1251 203.378C73.8981 198.538 82.4033 190.995 93.279 188.545C104.28 186.062 116.067 188.975 125.629 194.958C137.35 202.295 146.965 213.998 152.96 226.427C158.943 238.837 138.235 240.593 135.91 230.39C135.362 227.999 140.691 225.457 134.299 223.171C131.909 222.313 129.023 222.181 126.501 222.339C122.558 222.584 118.649 223.971 115.361 226.15C108.605 230.634 104.095 237.714 99.6645 244.503C95.2336 251.292 90.4198 258.247 83.3542 262.229C78.4478 264.996 72.4916 265.894 66.9382 265.32C64.0855 265.023 61.2526 264.316 58.6509 263.101C56.069 261.892 52.7409 260.017 51.024 257.666C56.7029 258.445 61.0611 257.474 65.9146 254.139C70.2464 251.167 73.667 246.953 76.4008 242.515C83.5919 230.826 90.6113 218.872 104.036 213.496C108.678 211.64 112.805 211.171 117.712 211.469C123.39 211.812 127.841 214.13 132.794 216.607C135.409 217.914 137.951 220.1 140.09 222.445L140.104 222.452Z" fill="#BC894D"/>
<mask id="mask7_710_16011" style="mask-type:luminance" maskUnits="userSpaceOnUse" x="37" y="187" width="118" height="79">
<path d="M140.104 222.452C141.074 223.515 141.959 224.618 142.725 225.681C144.653 228.362 145.116 226.216 144.548 224.235C142.388 216.66 135.144 212.156 128.818 208.556C121.997 204.673 113.644 203.979 106.024 205.347C97.7033 206.839 90.9414 211.66 83.473 215.306C75.9386 218.984 67.7438 221.758 59.3641 221.553C50.9646 221.349 42.2811 218.542 37.8965 210.901C47.0752 210.987 55.8973 207.453 64.1251 203.378C73.8981 198.538 82.4033 190.995 93.279 188.545C104.28 186.062 116.067 188.975 125.629 194.958C137.35 202.295 146.965 213.998 152.96 226.427C158.943 238.837 138.235 240.593 135.91 230.39C135.362 227.999 140.691 225.457 134.299 223.171C131.909 222.313 129.023 222.181 126.501 222.339C122.558 222.584 118.649 223.971 115.361 226.15C108.605 230.634 104.095 237.714 99.6645 244.503C95.2336 251.292 90.4198 258.247 83.3542 262.229C78.4478 264.996 72.4916 265.894 66.9382 265.32C64.0855 265.023 61.2526 264.316 58.6509 263.101C56.069 261.892 52.7409 260.017 51.024 257.666C56.7029 258.445 61.0611 257.474 65.9146 254.139C70.2464 251.167 73.667 246.953 76.4008 242.515C83.5919 230.826 90.6113 218.872 104.036 213.496C108.678 211.64 112.805 211.171 117.712 211.469C123.39 211.812 127.841 214.13 132.794 216.607C135.409 217.914 137.951 220.1 140.09 222.445L140.104 222.452Z" fill="white"/>
</mask>
<g mask="url(#mask7_710_16011)">
<path d="M136.622 227.57C136.622 227.57 136.662 227.55 136.682 227.543C137.725 227.035 137.408 225.47 136.966 224.723C135.81 222.788 133.341 221.448 131.353 220.53C122.227 216.329 110.579 218.027 102.292 223.396C99.0823 225.476 96.2428 228.144 94.0439 231.281C88.6621 238.956 86.8858 249.02 79.2853 255.103C71.5462 261.298 59.6535 262.077 50.9238 257.692C51.8153 258.141 53.1029 261.344 54.034 262.242C55.2556 263.424 56.7678 264.336 58.1875 265.234C60.8289 266.911 63.8929 268.061 67.0229 268.279C73.8772 268.754 80.8371 265.809 86.1859 261.701C93.542 256.047 98.8313 248.202 104.761 241.069C107.119 238.236 109.621 235.475 112.679 233.421C113.603 232.8 114.574 232.252 115.571 231.764C116.608 231.262 117.849 230.978 118.807 230.35C120.715 229.115 122.504 228.574 124.769 228.144C126.506 227.814 128.249 227.484 130.019 227.372C131.181 227.292 132.343 227.306 133.506 227.365C134.272 227.405 135.896 227.841 136.622 227.557V227.57Z" fill="#725741"/>
<path d="M136.233 210.194C130.898 205.148 124.136 201.714 116.707 200.598C111.147 199.759 104.511 200.704 99.1684 202.408C93.0602 204.356 87.5332 207.764 81.7487 210.531C74.7689 213.873 67.6703 215.966 59.9509 216.666C52.8589 217.307 45.2452 214.361 38.5295 212.241C36.0004 211.442 34.442 210.478 32.5469 208.622C33.4317 209.487 33.2006 213.483 33.577 214.718C34.1581 216.646 35.7495 218.714 37.4202 219.823C40.6162 221.956 43.9047 223.951 47.279 225.8C51.9476 228.356 57.0388 230.687 62.3545 230.35C68.6409 229.947 75.1057 226.176 80.395 222.967C85.9154 219.618 90.8349 215.339 96.527 212.255C100.581 210.055 106.65 209.745 111.22 209.659C117.295 209.547 123.535 209.461 129.247 211.535C136.814 214.276 140.671 219.863 144.355 226.533C144.316 226.46 144.824 224.994 144.844 224.677C144.89 223.858 144.666 222.947 144.448 222.161C143.946 220.325 142.995 218.628 141.965 217.049C140.321 214.533 138.399 212.228 136.24 210.188L136.233 210.194Z" fill="#725741"/>
</g>
<path d="M138.551 378.266C139.865 381.548 144.025 383.338 147.333 382.096C150.648 380.855 152.596 376.826 151.586 373.438C148.694 363.756 135.064 369.562 138.551 378.266Z" fill="white"/>
<path d="M131.691 264.422C132.344 266.145 132.694 267.889 132.239 269.566C131.71 271.515 129.921 272.571 128.547 273.925C130.297 273.298 132.609 272.208 134.484 272.717C136.095 273.152 137.614 273.767 139.318 273.952C142.758 274.315 146.205 274.652 149.652 274.988C152.022 275.22 157.411 277.69 159.603 276.534C161.135 275.728 160.95 272.36 162.073 270.63C163.222 268.873 164.727 267.374 165.89 265.624C169.673 259.918 169.211 252.21 166.451 245.95C164.536 241.611 161.65 237.833 158.573 234.26C156.07 231.354 154.472 228.078 152.102 225.239C151.362 226.295 150.193 228.085 148.721 228.085C147.638 228.217 146.489 227.649 145.406 227.629C144.079 227.609 142.824 227.742 141.543 227.993C140.506 228.191 139.661 228.237 138.869 227.299C138.552 226.923 138.162 226.388 137.7 226.566C137.521 226.639 137.403 226.804 137.29 226.962C133.315 232.708 128.884 237.212 127.623 244.364C126.864 248.703 127.154 253.241 128.534 257.428C129.241 259.568 130.766 261.971 131.684 264.415L131.691 264.422Z" fill="#BC8A4D"/>
<path d="M259.288 386.422C262.002 383.114 263.693 379.217 264.696 374.336C265.971 368.115 266.057 361.643 264.914 355.395C263.765 349.095 260.873 343.541 259.149 337.432C257.38 331.171 257.644 324.719 256.376 318.412C254.336 308.175 249.284 292.86 241.571 285.502C235.688 279.889 220.275 279.334 214.385 284.802C202.057 296.241 194.344 314.548 190.316 330.497C188.341 338.317 186.651 346.202 185.211 354.141C183.415 364.073 183.356 376.364 188.559 385.564C192.211 392.023 202.09 395.279 209.036 396.976C223.102 400.417 239.802 400.423 252.388 392.386C255.207 390.583 257.479 388.635 259.295 386.422H259.288Z" fill="#BC8A4D"/>
<mask id="mask8_710_16011" style="mask-type:luminance" maskUnits="userSpaceOnUse" x="184" y="280" width="82" height="120">
<path d="M259.288 386.422C262.002 383.114 263.693 379.217 264.696 374.336C265.971 368.115 266.057 361.643 264.914 355.395C263.765 349.095 260.873 343.541 259.149 337.432C257.38 331.171 257.644 324.719 256.376 318.412C254.336 308.175 249.284 292.86 241.571 285.502C235.688 279.889 220.275 279.334 214.385 284.802C202.057 296.241 194.344 314.548 190.316 330.497C188.341 338.317 186.651 346.202 185.211 354.141C183.415 364.073 183.356 376.364 188.559 385.564C192.211 392.023 202.09 395.279 209.036 396.976C223.102 400.417 239.802 400.423 252.388 392.386C255.207 390.583 257.479 388.635 259.295 386.422H259.288Z" fill="white"/>
</mask>
<g mask="url(#mask8_710_16011)">
<path d="M172.098 291.42C173.94 291.01 175.822 290.839 177.704 290.984C182.287 291.327 186.83 293.725 188.996 297.681C165.217 315.783 162.048 347.939 166.545 375.03C167.535 380.98 165.112 384.111 159.928 379.818C156.19 376.721 154.143 372.956 152.156 368.637C146.972 357.37 144.971 344.749 146.186 332.472C147.599 318.174 151.04 302.35 164.61 294.438C166.934 293.084 169.47 292.014 172.098 291.427V291.42Z" fill="#725741"/>
<path d="M192.087 401.989C191.129 402.576 190.178 403.098 189.492 403.541C187.933 404.544 186.223 405.588 184.361 405.476C183.258 405.41 182.234 404.934 181.244 404.459C178.022 402.9 174.911 401.275 172.085 399.142C169.305 397.049 166.618 395.701 164.96 392.465C161.553 385.808 164.207 379.996 168.381 374.442C168.691 374.026 169.034 373.603 169.51 373.405C169.992 373.201 170.652 373.306 170.896 373.755C171.048 374.039 171.009 374.376 170.982 374.693C170.388 380.941 171.458 387.023 175.869 391.858C179.976 396.355 185.18 397.881 191.057 398.568C192.311 398.713 193.579 399.036 194.847 399.228C194.972 399.248 195.111 399.274 195.171 399.38C195.237 399.499 195.171 399.644 195.104 399.756C194.451 400.839 193.13 401.348 192.08 401.989H192.087Z" fill="white"/>
</g>
<path d="M231.54 244.602C230.827 245.798 230.061 246.967 229.256 248.083C228.793 248.717 228.397 249.199 227.644 249.285C229.011 249.126 229.619 235.383 229.513 233.864C229.044 227.061 227.024 220.345 223.359 214.579C217.739 205.756 208.145 199.376 197.731 198.379C187.318 197.388 176.363 202.13 170.565 210.835C166.51 216.924 165.289 223.455 163.658 230.324C162.806 233.917 156.262 245.95 151.857 245.943C160.831 245.956 169.759 242.991 177.043 237.76C184.399 232.47 188.784 225.463 197.843 222.221C203.423 220.219 210.013 220.147 214.946 223.442C219.727 226.639 221.226 233.085 221.622 238.52C222.018 243.929 217.066 248.889 218.017 253.868C219.661 262.48 234.287 260.42 236.077 252.825C236.764 249.906 234.367 249.146 236.024 246.313C237.701 243.447 243.05 240.825 245.421 238.097C252.5 229.967 255.405 218.383 253.008 207.876C248.762 189.239 228.358 175.297 210.258 173.58C203.694 172.959 197.044 173.382 190.52 172.405C184.003 171.427 177.809 168.825 173.583 163.627C174.738 175.713 184.287 185.263 195.024 189.754C204.592 193.75 215.23 195.711 223.491 201.978C236.922 212.169 239.947 230.469 231.54 244.583V244.602Z" fill="#BC894D"/>
<mask id="mask9_710_16011" style="mask-type:luminance" maskUnits="userSpaceOnUse" x="151" y="163" width="103" height="97">
<path d="M231.54 244.602C230.827 245.798 230.061 246.967 229.256 248.083C228.793 248.717 228.397 249.199 227.644 249.285C229.011 249.126 229.619 235.383 229.513 233.864C229.044 227.061 227.024 220.345 223.359 214.579C217.739 205.756 208.145 199.376 197.731 198.379C187.318 197.388 176.363 202.13 170.565 210.835C166.51 216.924 165.289 223.455 163.658 230.324C162.806 233.917 156.262 245.95 151.857 245.943C160.831 245.956 169.759 242.991 177.043 237.76C184.399 232.47 188.784 225.463 197.843 222.221C203.423 220.219 210.013 220.147 214.946 223.442C219.727 226.639 221.226 233.085 221.622 238.52C222.018 243.929 217.066 248.889 218.017 253.868C219.661 262.48 234.287 260.42 236.077 252.825C236.764 249.906 234.367 249.146 236.024 246.313C237.701 243.447 243.05 240.825 245.421 238.097C252.5 229.967 255.405 218.383 253.008 207.876C248.762 189.239 228.358 175.297 210.258 173.58C203.694 172.959 197.044 173.382 190.52 172.405C184.003 171.427 177.809 168.825 173.583 163.627C174.738 175.713 184.287 185.263 195.024 189.754C204.592 193.75 215.23 195.711 223.491 201.978C236.922 212.169 239.947 230.469 231.54 244.583V244.602Z" fill="white"/>
</mask>
<g mask="url(#mask9_710_16011)">
<path d="M244.483 218.179C244.793 222.478 244.173 226.923 242.548 231.235C239.966 238.077 234.954 243.975 228.615 247.62C230.008 240.765 231.408 233.851 231.283 226.857C231.184 221.283 230.14 215.002 227.063 210.227C224.257 205.868 217.64 200.017 213.209 197.276C206.52 193.135 197.982 193.148 190.83 190.077C180.391 185.593 173.147 174.511 173.219 163.145C173.199 166.388 182.253 175.548 185.026 177.569C190.203 181.34 196.84 183.44 202.915 185.197C212.569 187.997 222.685 190.071 231.098 195.579C239.141 200.849 243.842 209.21 244.49 218.185L244.483 218.179Z" fill="#725741"/>
</g>
<path d="M233.443 400.648C232.129 403.93 227.969 405.72 224.661 404.478C221.346 403.237 219.398 399.208 220.408 395.82C223.3 386.138 236.93 391.944 233.443 400.648Z" fill="white"/>
<path d="M240.297 286.804C239.643 288.527 239.293 290.271 239.749 291.948C240.277 293.897 242.067 294.953 243.44 296.307C241.69 295.68 239.379 294.59 237.504 295.099C235.893 295.535 234.374 296.149 232.67 296.334C229.23 296.697 225.783 297.034 222.336 297.371C219.965 297.602 214.577 300.072 212.384 298.916C210.852 298.11 211.037 294.742 209.915 293.012C208.766 291.255 207.26 289.756 206.098 288.006C202.314 282.3 202.777 274.592 205.537 268.332C207.452 263.993 210.337 260.215 213.415 256.642C215.917 253.736 217.515 250.46 219.886 247.621C220.625 248.677 221.794 250.467 223.267 250.467C224.35 250.599 225.499 250.031 226.582 250.011C227.909 249.992 229.164 250.124 230.445 250.375C231.481 250.573 232.327 250.619 233.119 249.681C233.436 249.305 233.826 248.77 234.288 248.948C234.466 249.021 234.585 249.186 234.697 249.344C238.673 255.09 243.103 259.594 244.365 266.747C245.124 271.086 244.833 275.623 243.453 279.81C242.747 281.95 241.221 284.354 240.304 286.797L240.297 286.804Z" fill="#BC8A4D"/>
<path d="M482.825 391.831C485.539 388.522 487.23 384.626 488.233 379.745C489.508 373.524 489.594 367.052 488.451 360.804C487.302 354.504 484.41 348.95 482.687 342.841C480.917 336.58 481.181 330.128 479.913 323.82C477.873 313.584 472.821 298.269 465.108 290.911C459.225 285.298 443.812 284.743 437.922 290.211C425.594 301.65 417.881 319.957 413.853 335.906C411.878 343.726 410.188 351.611 408.749 359.55C406.952 369.482 406.893 381.773 412.096 390.973C415.748 397.432 425.627 400.688 432.574 402.385C446.639 405.826 463.339 405.832 475.925 397.795C478.744 395.992 481.016 394.044 482.832 391.831H482.825Z" fill="#BC8A4D"/>
<mask id="mask10_710_16011" style="mask-type:luminance" maskUnits="userSpaceOnUse" x="407" y="286" width="83" height="119">
<path d="M482.825 391.831C485.539 388.522 487.23 384.626 488.233 379.745C489.508 373.524 489.594 367.052 488.451 360.804C487.302 354.504 484.41 348.95 482.687 342.841C480.917 336.58 481.181 330.128 479.913 323.82C477.873 313.584 472.821 298.269 465.108 290.911C459.225 285.298 443.812 284.743 437.922 290.211C425.594 301.65 417.881 319.957 413.853 335.906C411.878 343.726 410.188 351.611 408.749 359.55C406.952 369.482 406.893 381.773 412.096 390.973C415.748 397.432 425.627 400.688 432.574 402.385C446.639 405.826 463.339 405.832 475.925 397.795C478.744 395.992 481.016 394.044 482.832 391.831H482.825Z" fill="white"/>
</mask>
<g mask="url(#mask10_710_16011)">
<path d="M395.635 296.829C397.477 296.419 399.359 296.248 401.241 296.393C405.824 296.736 410.367 299.134 412.533 303.09C388.754 321.192 385.585 353.348 390.082 380.439C391.072 386.389 388.649 389.52 383.465 385.227C379.728 382.13 377.68 378.365 375.693 374.046C370.509 362.779 368.508 350.158 369.723 337.881C371.137 323.583 374.577 307.759 388.147 299.847C390.471 298.493 393.007 297.423 395.635 296.835V296.829Z" fill="#725741"/>
<path d="M415.624 407.397C414.666 407.985 413.715 408.507 413.029 408.949C411.47 409.953 409.76 410.997 407.898 410.885C406.795 410.819 405.772 410.343 404.781 409.867C401.559 408.309 398.448 406.684 395.622 404.551C392.842 402.457 390.155 401.11 388.497 397.874C385.09 391.217 387.744 385.405 391.918 379.851C392.228 379.435 392.571 379.012 393.047 378.814C393.529 378.61 394.189 378.715 394.434 379.164C394.585 379.448 394.546 379.785 394.519 380.102C393.925 386.35 394.995 392.432 399.406 397.267C403.513 401.764 408.717 403.29 414.594 403.976C415.848 404.122 417.116 404.445 418.384 404.637C418.51 404.657 418.648 404.683 418.708 404.789C418.774 404.908 418.708 405.053 418.642 405.165C417.988 406.248 416.667 406.757 415.617 407.397H415.624Z" fill="white"/>
</g>
<path d="M454.477 252.197C453.889 254.931 453.004 256.781 451.611 256.51C450.931 256.378 446.704 237.47 445.648 234.914C442.472 227.213 435.981 220.398 429.172 215.808C416.448 207.447 400.071 205.426 388.344 195.717C393.098 212.519 404.416 227.372 419.347 236.42C423.87 239.16 428.473 242.046 433.062 244.635C437.413 247.092 442.353 249.357 445.384 253.525C446.42 254.951 446.731 257.065 445.622 258.432C444.776 259.462 443.376 259.825 442.28 260.585C440.108 262.09 439.388 265.208 440.312 267.691C441.23 270.174 443.535 271.977 446.077 272.736C448.613 273.489 451.353 273.291 453.922 272.657C456.748 271.957 459.581 270.603 461.159 268.153C462.731 265.703 462.553 261.991 460.175 260.314C459.238 259.647 458.042 259.336 457.25 258.498C453.889 254.938 462.163 248.05 464.335 246.154C469.11 241.994 475.026 238.982 479.596 234.65C485.486 229.056 490.373 222.854 492.948 215.048C496.283 204.937 496.685 194.106 496.434 183.46C495.536 189.721 491.139 194.945 486.199 198.894C481.26 202.837 475.621 205.875 470.8 209.969C464.844 215.028 460.017 221.804 457.349 229.161C454.609 236.717 456.141 244.47 454.477 252.21V252.197Z" fill="#BC894D"/>
<mask id="mask11_710_16011" style="mask-type:luminance" maskUnits="userSpaceOnUse" x="388" y="183" width="109" height="91">
<path d="M454.477 252.197C453.889 254.931 453.004 256.781 451.611 256.51C450.931 256.378 446.704 237.47 445.648 234.914C442.472 227.213 435.981 220.398 429.172 215.808C416.448 207.447 400.071 205.426 388.344 195.717C393.098 212.519 404.416 227.372 419.347 236.42C423.87 239.16 428.473 242.046 433.062 244.635C437.413 247.092 442.353 249.357 445.384 253.525C446.42 254.951 446.731 257.065 445.622 258.432C444.776 259.462 443.376 259.825 442.28 260.585C440.108 262.09 439.388 265.208 440.312 267.691C441.23 270.174 443.535 271.977 446.077 272.736C448.613 273.489 451.353 273.291 453.922 272.657C456.748 271.957 459.581 270.603 461.159 268.153C462.731 265.703 462.553 261.991 460.175 260.314C459.238 259.647 458.042 259.336 457.25 258.498C453.889 254.938 462.163 248.05 464.335 246.154C469.11 241.994 475.026 238.982 479.596 234.65C485.486 229.056 490.373 222.854 492.948 215.048C496.283 204.937 496.685 194.106 496.434 183.46C495.536 189.721 491.139 194.945 486.199 198.894C481.26 202.837 475.621 205.875 470.8 209.969C464.844 215.028 460.017 221.804 457.349 229.161C454.609 236.717 456.141 244.47 454.477 252.21V252.197Z" fill="white"/>
</mask>
<g mask="url(#mask11_710_16011)">
<path d="M481.258 224.162C473.479 233.778 462.94 241.28 457.116 252.191C456.33 253.663 455.637 255.479 456.456 256.939C457.354 258.537 459.527 258.782 461.362 258.735C469.247 258.524 477.065 256.391 483.966 252.574C489.942 249.265 495.244 244.675 499.087 239.028C506.833 227.656 508.094 213.186 508.444 199.429C508.576 194.278 508.524 188.796 505.744 184.464C504.113 181.921 500.52 177.793 498.136 181.096C495.667 184.51 496.235 187.878 495.574 191.728C494.96 195.328 493.897 199.086 492.801 202.573C490.331 210.405 486.422 217.782 481.258 224.169V224.162Z" fill="#725741"/>
<path d="M414.922 213.344C409.487 210.194 403.94 207.202 398.697 203.761C393.718 200.492 387.656 197.091 386.408 190.705C386.699 192.131 390.912 193.314 392.061 193.584C394.504 194.172 397.608 196.787 400.031 196.787C405.446 199.013 410.861 201.239 416.275 203.464C422.687 206.099 429.145 208.761 434.943 212.565C440.741 216.369 445.898 221.448 448.698 227.788C450.58 232.054 451.326 236.704 451.471 241.34C451.597 245.428 450.091 250.5 451.848 254.211C452.171 254.892 452.145 255.935 451.425 256.153C450.639 256.391 450.058 255.42 449.82 254.634C446.994 245.421 442.464 236.756 436.112 229.478C430.123 222.61 422.648 217.809 414.928 213.338L414.922 213.344Z" fill="#725741"/>
</g>
<path d="M456.98 406.057C455.666 409.339 451.506 411.129 448.198 409.887C444.883 408.646 442.935 404.617 443.945 401.229C446.837 391.547 460.467 397.352 456.98 406.057Z" fill="white"/>
<path d="M463.834 292.212C463.18 293.936 462.83 295.68 463.286 297.357C463.814 299.305 465.604 300.362 466.977 301.716C465.227 301.088 462.916 299.999 461.041 300.507C459.43 300.943 457.911 301.557 456.207 301.742C452.767 302.106 449.32 302.442 445.873 302.779C443.502 303.01 438.114 305.48 435.922 304.325C434.244 303.44 433.914 299.431 433.036 297.813C431.973 295.858 430.282 293.698 428.929 291.895C425.277 287.041 421.909 282.696 424.009 276.171C425.759 270.742 430.507 267.559 434.647 264.039C438.933 260.4 443.984 257.507 449.762 257.355C459.258 257.097 466.238 262.665 467.908 272.162C468.668 276.501 468.377 281.038 466.997 285.225C466.291 287.365 464.765 289.769 463.847 292.212H463.834Z" fill="#BC8A4D"/>
<path d="M543.491 365.942C546.205 362.634 547.896 358.737 548.899 353.857C550.174 347.635 550.26 341.163 549.117 334.916C547.968 328.615 545.076 323.061 543.353 316.952C541.583 310.691 541.847 304.239 540.579 297.932C538.539 287.695 533.487 272.38 525.774 265.023C519.891 259.409 504.478 258.854 498.588 264.323C486.26 275.761 478.547 294.068 474.519 310.018C472.545 317.837 470.854 325.723 469.415 333.661C467.618 343.594 467.559 355.884 472.762 365.084C476.414 371.543 486.293 374.799 493.24 376.496C507.305 379.937 524.005 379.944 536.591 371.906C539.41 370.103 541.682 368.155 543.498 365.942H543.491Z" fill="#BC8A4D"/>
<mask id="mask12_710_16011" style="mask-type:luminance" maskUnits="userSpaceOnUse" x="468" y="260" width="82" height="119">
<path d="M543.491 365.942C546.205 362.634 547.896 358.737 548.899 353.857C550.174 347.635 550.26 341.163 549.117 334.916C547.968 328.615 545.076 323.061 543.353 316.952C541.583 310.691 541.847 304.239 540.579 297.932C538.539 287.695 533.487 272.38 525.774 265.023C519.891 259.409 504.478 258.854 498.588 264.323C486.26 275.761 478.547 294.068 474.519 310.018C472.545 317.837 470.854 325.723 469.415 333.661C467.618 343.594 467.559 355.884 472.762 365.084C476.414 371.543 486.293 374.799 493.24 376.496C507.305 379.937 524.005 379.944 536.591 371.906C539.41 370.103 541.682 368.155 543.498 365.942H543.491Z" fill="white"/>
</mask>
<g mask="url(#mask12_710_16011)">
<path d="M456.301 270.94C458.143 270.531 460.025 270.359 461.907 270.504C466.49 270.848 471.033 273.245 473.199 277.201C449.42 295.303 446.251 327.459 450.748 354.55C451.738 360.501 449.315 363.631 444.131 359.338C440.394 356.241 438.347 352.476 436.359 348.157C431.175 336.89 429.174 324.27 430.389 311.992C431.803 297.694 435.243 281.87 448.813 273.958C451.137 272.604 453.673 271.535 456.301 270.947V270.94Z" fill="#725741"/>
<path d="M476.29 381.509C475.332 382.097 474.381 382.618 473.695 383.061C472.136 384.065 470.426 385.108 468.564 384.996C467.461 384.93 466.438 384.454 465.447 383.979C462.225 382.42 459.114 380.796 456.288 378.662C453.462 376.529 450.821 375.222 449.163 371.985C445.756 365.328 448.41 359.517 452.584 353.962C452.894 353.546 453.237 353.124 453.713 352.926C454.195 352.721 454.855 352.826 455.1 353.276C455.251 353.56 455.212 353.896 455.185 354.213C454.591 360.461 455.661 366.544 460.072 371.378C464.179 375.875 469.383 377.401 475.26 378.088C476.514 378.233 477.782 378.557 479.05 378.748C479.176 378.768 479.314 378.794 479.374 378.9C479.44 379.019 479.374 379.164 479.308 379.277C478.654 380.36 477.333 380.868 476.283 381.509H476.29Z" fill="white"/>
</g>
<path d="M516.093 224.36C515.123 225.424 514.238 226.526 513.472 227.59C511.544 230.271 511.081 228.125 511.649 226.143C513.809 218.568 521.053 214.064 527.379 210.465C534.2 206.582 542.553 205.888 550.173 207.255C558.494 208.748 565.256 213.569 572.724 217.214C580.258 220.893 588.453 223.667 596.833 223.462C605.232 223.257 613.916 220.451 618.301 212.809C609.122 212.895 600.3 209.362 592.072 205.287C582.299 200.446 573.794 192.904 562.918 190.454C551.917 187.971 540.13 190.883 530.568 196.867C518.847 204.204 509.233 215.907 503.237 228.336C497.254 240.745 517.962 242.502 520.287 232.299C520.835 229.908 515.506 227.365 521.898 225.08C524.288 224.222 527.174 224.089 529.696 224.248C533.639 224.492 537.548 225.879 540.836 228.059C547.592 232.543 552.102 239.623 556.533 246.412C560.963 253.201 565.777 260.155 572.843 264.138C577.749 266.905 583.705 267.803 589.259 267.229C592.112 266.931 594.944 266.225 597.546 265.01C600.128 263.801 603.456 261.925 605.173 259.574C599.494 260.354 595.136 259.383 590.282 256.048C585.951 253.076 582.53 248.862 579.796 244.424C572.605 232.734 565.586 220.781 552.161 215.405C547.519 213.549 543.392 213.08 538.485 213.377C532.807 213.721 528.356 216.039 523.403 218.515C520.788 219.823 518.246 222.009 516.107 224.354L516.093 224.36Z" fill="#BC894D"/>
<mask id="mask13_710_16011" style="mask-type:luminance" maskUnits="userSpaceOnUse" x="502" y="189" width="117" height="79">
<path d="M516.093 224.36C515.123 225.424 514.238 226.526 513.472 227.59C511.544 230.271 511.081 228.125 511.649 226.143C513.809 218.568 521.053 214.064 527.379 210.465C534.2 206.582 542.553 205.888 550.173 207.255C558.494 208.748 565.256 213.569 572.724 217.214C580.258 220.893 588.453 223.667 596.833 223.462C605.232 223.257 613.916 220.451 618.301 212.809C609.122 212.895 600.3 209.362 592.072 205.287C582.299 200.446 573.794 192.904 562.918 190.454C551.917 187.971 540.13 190.883 530.568 196.867C518.847 204.204 509.233 215.907 503.237 228.336C497.254 240.745 517.962 242.502 520.287 232.299C520.835 229.908 515.506 227.365 521.898 225.08C524.288 224.222 527.174 224.089 529.696 224.248C533.639 224.492 537.548 225.879 540.836 228.059C547.592 232.543 552.102 239.623 556.533 246.412C560.963 253.201 565.777 260.155 572.843 264.138C577.749 266.905 583.705 267.803 589.259 267.229C592.112 266.931 594.944 266.225 597.546 265.01C600.128 263.801 603.456 261.925 605.173 259.574C599.494 260.354 595.136 259.383 590.282 256.048C585.951 253.076 582.53 248.862 579.796 244.424C572.605 232.734 565.586 220.781 552.161 215.405C547.519 213.549 543.392 213.08 538.485 213.377C532.807 213.721 528.356 216.039 523.403 218.515C520.788 219.823 518.246 222.009 516.107 224.354L516.093 224.36Z" fill="white"/>
</mask>
<g mask="url(#mask13_710_16011)">
<path d="M519.567 229.472C519.567 229.472 519.528 229.452 519.508 229.446C518.464 228.937 518.781 227.372 519.224 226.626C520.379 224.69 522.849 223.35 524.837 222.432C533.963 218.231 545.611 219.929 553.898 225.298C557.107 227.378 559.947 230.047 562.146 233.184C567.528 240.858 569.304 250.923 576.904 257.005C584.644 263.2 596.536 263.979 605.266 259.594C604.374 260.043 603.087 263.246 602.156 264.144C600.934 265.327 599.422 266.238 598.002 267.136C595.361 268.814 592.297 269.963 589.167 270.181C582.313 270.656 575.353 267.711 570.004 263.603C562.648 257.95 557.358 250.104 551.429 242.971C549.071 240.138 546.568 237.377 543.511 235.323C542.587 234.703 541.616 234.154 540.619 233.666C539.582 233.164 538.341 232.88 537.383 232.252C535.475 231.017 533.685 230.476 531.42 230.047C529.684 229.716 527.94 229.386 526.171 229.274C525.008 229.195 523.846 229.208 522.684 229.267C521.918 229.307 520.294 229.743 519.567 229.459V229.472Z" fill="#725741"/>
<path d="M519.963 212.096C525.298 207.051 532.06 203.616 539.489 202.5C545.049 201.661 551.685 202.606 557.027 204.31C563.136 206.258 568.663 209.666 574.447 212.433C581.427 215.775 588.526 217.868 596.245 218.568C603.337 219.209 610.951 216.264 617.666 214.144C620.195 213.344 621.754 212.38 623.649 210.524C622.764 211.39 622.995 215.385 622.619 216.62C622.038 218.549 620.446 220.616 618.776 221.725C615.58 223.858 612.291 225.853 608.917 227.702C604.248 230.258 599.157 232.589 593.841 232.252C587.555 231.85 581.09 228.079 575.801 224.869C570.28 221.521 565.361 217.241 559.669 214.157C555.614 211.958 549.546 211.647 544.976 211.561C538.901 211.449 532.661 211.363 526.949 213.437C519.382 216.178 515.525 221.765 511.84 228.435C511.88 228.363 511.372 226.896 511.352 226.579C511.306 225.76 511.53 224.849 511.748 224.063C512.25 222.227 513.201 220.53 514.231 218.951C515.875 216.435 517.797 214.13 519.956 212.09L519.963 212.096Z" fill="#725741"/>
</g>
<path d="M517.646 380.168C516.332 383.45 512.172 385.24 508.864 383.999C505.549 382.757 503.601 378.728 504.611 375.34C507.503 365.658 521.133 371.464 517.646 380.168Z" fill="white"/>
<path d="M524.5 266.324C523.846 268.047 523.496 269.791 523.952 271.468C524.48 273.417 526.27 274.473 527.643 275.827C525.893 275.2 523.582 274.11 521.707 274.619C520.096 275.055 518.577 275.669 516.873 275.854C513.433 276.217 509.986 276.554 506.539 276.891C504.168 277.122 498.78 279.592 496.588 278.436C495.056 277.63 495.241 274.262 494.118 272.532C492.969 270.775 491.463 269.276 490.301 267.526C486.517 261.82 486.98 254.112 489.74 247.852C491.655 243.513 494.541 239.735 497.618 236.162C500.12 233.256 501.718 229.98 504.089 227.141C504.829 228.197 505.997 229.987 507.47 229.987C508.553 230.119 509.702 229.551 510.785 229.531C512.112 229.512 513.367 229.644 514.648 229.895C515.685 230.093 516.53 230.139 517.322 229.201C517.639 228.825 518.029 228.29 518.491 228.468C518.669 228.541 518.788 228.706 518.9 228.864C522.876 234.61 527.307 239.114 528.568 246.267C529.327 250.606 529.037 255.143 527.656 259.33C526.95 261.47 525.425 263.874 524.507 266.317L524.5 266.324Z" fill="#BC8A4D"/>
</g>
<defs>
<clipPath id="clip0_710_16011">
<rect width="649" height="417" fill="white"/>
</clipPath>
</defs>
</svg>
